<?xml version="1.0" encoding="UTF-8" standalone="no"?>
<!DOCTYPE svg PUBLIC "-//W3C//DTD SVG 1.1//EN" "http://www.w3.org/Graphics/SVG/1.1/DTD/svg11.dtd">
<svg version="1.1" xmlns="http://www.w3.org/2000/svg" xmlns:xlink="http://www.w3.org/1999/xlink" preserveAspectRatio="xMidYMid meet" viewBox="295.7861635220125 173.3836477987422 50.00000000000006 38" width="46" height="34"><defs><path d="M317.68 174.83L318.92 175.17L320.11 175.6L321.26 176.11L322.36 176.71L323.42 177.38L324.42 178.12L325.36 178.93L326.24 179.81L327.05 180.75L327.79 181.75L328.46 182.81L329.06 183.91L329.57 185.06L330 186.25L330.34 187.49L330.58 188.76L330.73 190.06L330.79 191.38L330.73 192.71L330.58 194.01L330.34 195.28L330 196.51L329.57 197.71L329.06 198.86L328.46 199.96L327.79 201.01L327.05 202.01L326.24 202.95L325.36 203.83L324.42 204.65L323.42 205.39L322.36 206.06L321.26 206.65L320.11 207.17L318.92 207.59L317.68 207.93L316.41 208.18L315.11 208.33L313.79 208.38L312.46 208.33L311.16 208.18L309.89 207.93L308.66 207.59L307.46 207.17L306.31 206.65L305.21 206.06L304.16 205.39L303.16 204.65L302.22 203.83L301.34 202.95L300.52 202.01L299.78 201.01L299.11 199.96L298.52 198.86L298 197.71L297.57 196.51L297.24 195.28L296.99 194.01L296.84 192.71L296.79 191.38L296.84 190.06L296.99 188.76L297.24 187.49L297.57 186.25L298 185.06L298.52 183.91L299.11 182.81L299.78 181.75L300.52 180.75L301.34 179.81L302.22 178.93L303.16 178.12L304.16 177.38L305.21 176.71L306.31 176.11L307.46 175.6L308.66 175.17L309.89 174.83L311.16 174.59L312.46 174.43L313.79 174.38L315.11 174.43L316.41 174.59L316.41 174.59L317.68 174.83ZM309.8 176.92L308.55 177.32L307.36 177.83L306.22 178.43L305.14 179.13L304.12 179.91L303.18 180.78L302.32 181.72L301.53 182.74L300.84 183.82L300.23 184.96L299.73 186.15L299.32 187.4L299.03 188.69L298.85 190.02L298.79 191.38L298.85 192.75L299.03 194.08L299.32 195.37L299.73 196.62L300.23 197.81L300.84 198.95L301.53 200.03L302.32 201.05L303.18 201.99L304.12 202.85L305.14 203.64L306.22 204.33L307.36 204.94L308.55 205.44L309.8 205.85L311.09 206.14L312.42 206.32L313.79 206.38L315.15 206.32L316.48 206.14L317.77 205.85L319.02 205.44L320.21 204.94L321.35 204.33L322.43 203.64L323.45 202.85L324.39 201.99L325.26 201.05L326.04 200.03L326.74 198.95L327.34 197.81L327.85 196.62L328.25 195.37L328.54 194.08L328.72 192.75L328.79 191.38L328.72 190.02L328.54 188.69L328.25 187.4L327.85 186.15L327.34 184.96L326.74 183.82L326.04 182.74L325.26 181.72L324.39 180.78L323.45 179.91L322.43 179.13L321.35 178.43L320.21 177.83L319.02 177.32L317.77 176.92L316.48 176.63L315.15 176.44L313.79 176.38L312.42 176.44L311.09 176.63L311.09 176.63L309.8 176.92Z" id="bbV9ihN8o"></path><path d="M329.68 174.83L330.92 175.17L332.11 175.6L333.26 176.11L334.36 176.71L335.42 177.38L336.42 178.12L337.36 178.93L338.24 179.81L339.05 180.75L339.79 181.75L340.46 182.81L341.06 183.91L341.57 185.06L342 186.25L342.34 187.49L342.58 188.76L342.73 190.06L342.79 191.38L342.73 192.71L342.58 194.01L342.34 195.28L342 196.51L341.57 197.71L341.06 198.86L340.46 199.96L339.79 201.01L339.05 202.01L338.24 202.95L337.36 203.83L336.42 204.65L335.42 205.39L334.36 206.06L333.26 206.65L332.11 207.17L330.92 207.59L329.68 207.93L328.41 208.18L327.11 208.33L325.79 208.38L324.46 208.33L323.16 208.18L321.89 207.93L320.66 207.59L319.46 207.17L318.31 206.65L317.21 206.06L316.16 205.39L315.16 204.65L314.22 203.83L313.34 202.95L312.52 202.01L311.78 201.01L311.11 199.96L310.52 198.86L310 197.71L309.57 196.51L309.24 195.28L308.99 194.01L308.84 192.71L308.79 191.38L308.84 190.06L308.99 188.76L309.24 187.49L309.57 186.25L310 185.06L310.52 183.91L311.11 182.81L311.78 181.75L312.52 180.75L313.34 179.81L314.22 178.93L315.16 178.12L316.16 177.38L317.21 176.71L318.31 176.11L319.46 175.6L320.66 175.17L321.89 174.83L323.16 174.59L324.46 174.43L325.79 174.38L327.11 174.43L328.41 174.59L328.41 174.59L329.68 174.83ZM321.8 176.92L320.55 177.32L319.36 177.83L318.22 178.43L317.14 179.13L316.12 179.91L315.18 180.78L314.32 181.72L313.53 182.74L312.84 183.82L312.23 184.96L311.73 186.15L311.32 187.4L311.03 188.69L310.85 190.02L310.79 191.38L310.85 192.75L311.03 194.08L311.32 195.37L311.73 196.62L312.23 197.81L312.84 198.95L313.53 200.03L314.32 201.05L315.18 201.99L316.12 202.85L317.14 203.64L318.22 204.33L319.36 204.94L320.55 205.44L321.8 205.85L323.09 206.14L324.42 206.32L325.79 206.38L327.15 206.32L328.48 206.14L329.77 205.85L331.02 205.44L332.21 204.94L333.35 204.33L334.43 203.64L335.45 202.85L336.39 201.99L337.26 201.05L338.04 200.03L338.74 198.95L339.34 197.81L339.85 196.62L340.25 195.37L340.54 194.08L340.72 192.75L340.79 191.38L340.72 190.02L340.54 188.69L340.25 187.4L339.85 186.15L339.34 184.96L338.74 183.82L338.04 182.74L337.26 181.72L336.39 180.78L335.45 179.91L334.43 179.13L333.35 178.43L332.21 177.83L331.02 177.32L329.77 176.92L328.48 176.63L327.15 176.44L325.79 176.38L324.42 176.44L323.09 176.63L323.09 176.63L321.8 176.92Z" id="d3kw20oZhr"></path><path d="M315.5 190.88L317.5 190.88L317.5 188.88L315.5 188.88L315.5 190.88Z" id="aRBr6xPQh"></path><path d="M315.5 187.8L324.5 187.8L324.5 185.8L315.5 185.8L315.5 187.8Z" id="jsKBqDDi7"></path><path d="M315.5 196.97L324.5 196.97L324.5 194.97L315.5 194.97L315.5 196.97Z" id="esz4gOzFu"></path><path d="M318.5 190.88L321.5 190.88L321.5 188.88L318.5 188.88L318.5 190.88Z" id="b1Z6kBAfbn"></path><path d="M322.5 190.88L324.5 190.88L324.5 188.88L322.5 188.88L322.5 190.88Z" id="a1xWBFPeKb"></path><path d="M315.5 193.95L317.5 193.95L317.5 191.95L315.5 191.95L315.5 193.95Z" id="aiMn8rOba"></path><path d="M318.5 193.95L321.5 193.95L321.5 191.95L318.5 191.95L318.5 193.95Z" id="c2xPsGAfs"></path><path d="M322.5 193.95L324.5 193.95L324.5 191.95L322.5 191.95L322.5 193.95Z" id="f17JoumCAu"></path></defs><g><g><use xlink:href="#bbV9ihN8o" opacity="1" fill="#ffffff" fill-opacity="1"></use></g><g><use xlink:href="#d3kw20oZhr" opacity="1" fill="#ffffff" fill-opacity="1"></use></g><g><use xlink:href="#aRBr6xPQh" opacity="1" fill="#ffffff" fill-opacity="1"></use></g><g><use xlink:href="#jsKBqDDi7" opacity="1" fill="#ffffff" fill-opacity="1"></use></g><g><use xlink:href="#esz4gOzFu" opacity="1" fill="#ffffff" fill-opacity="1"></use></g><g><use xlink:href="#b1Z6kBAfbn" opacity="1" fill="#ffffff" fill-opacity="1"></use></g><g><use xlink:href="#a1xWBFPeKb" opacity="1" fill="#ffffff" fill-opacity="1"></use></g><g><use xlink:href="#aiMn8rOba" opacity="1" fill="#ffffff" fill-opacity="1"></use></g><g><use xlink:href="#c2xPsGAfs" opacity="1" fill="#ffffff" fill-opacity="1"></use></g><g><use xlink:href="#f17JoumCAu" opacity="1" fill="#ffffff" fill-opacity="1"></use></g></g></svg>